<mxfile host="app.diagrams.net" agent="Mozilla/5.0 (Windows NT 10.0; Win64; x64) AppleWebKit/537.36 (KHTML, like Gecko) Chrome/138.0.0.0 Safari/537.36" version="28.0.7" pages="2">
  <diagram name="Page-1" id="jBbVgrvIFhoohORSaG6I">
    <mxGraphModel dx="1342" dy="795" grid="1" gridSize="10" guides="1" tooltips="1" connect="1" arrows="1" fold="1" page="1" pageScale="1" pageWidth="850" pageHeight="1100" math="0" shadow="0">
      <root>
        <mxCell id="0" />
        <mxCell id="1" parent="0" />
        <mxCell id="pBC44l0gLQliGpBRJaoS-10" value="" style="edgeStyle=none;curved=1;rounded=0;orthogonalLoop=1;jettySize=auto;html=1;fontSize=12;startSize=8;endSize=8;labelBackgroundColor=none;fontColor=default;" edge="1" parent="1" source="pBC44l0gLQliGpBRJaoS-1" target="pBC44l0gLQliGpBRJaoS-2">
          <mxGeometry relative="1" as="geometry" />
        </mxCell>
        <mxCell id="pBC44l0gLQliGpBRJaoS-1" value="&lt;font style=&quot;font-size: 34px;&quot;&gt;Start&lt;/font&gt;" style="ellipse;whiteSpace=wrap;html=1;labelBackgroundColor=none;fillColor=#a20025;strokeColor=#6F0000;fontColor=#ffffff;" vertex="1" parent="1">
          <mxGeometry x="165" y="10" width="210" height="80" as="geometry" />
        </mxCell>
        <mxCell id="pBC44l0gLQliGpBRJaoS-11" value="" style="edgeStyle=none;curved=1;rounded=0;orthogonalLoop=1;jettySize=auto;html=1;fontSize=12;startSize=8;endSize=8;labelBackgroundColor=none;fontColor=default;" edge="1" parent="1" source="pBC44l0gLQliGpBRJaoS-2" target="pBC44l0gLQliGpBRJaoS-3">
          <mxGeometry relative="1" as="geometry" />
        </mxCell>
        <mxCell id="pBC44l0gLQliGpBRJaoS-2" value="&lt;font style=&quot;font-size: 15px;&quot;&gt;New User&lt;/font&gt;&lt;div&gt;&lt;font style=&quot;font-size: 15px;&quot;&gt;run&lt;/font&gt;&lt;/div&gt;&lt;div&gt;&lt;font style=&quot;font-size: 15px;&quot;&gt;create_database dy&lt;/font&gt;&lt;/div&gt;" style="rhombus;whiteSpace=wrap;html=1;labelBackgroundColor=none;fillColor=#e1d5e7;strokeColor=#9673a6;" vertex="1" parent="1">
          <mxGeometry x="150" y="130" width="260" height="110" as="geometry" />
        </mxCell>
        <mxCell id="pBC44l0gLQliGpBRJaoS-12" value="" style="edgeStyle=none;curved=1;rounded=0;orthogonalLoop=1;jettySize=auto;html=1;fontSize=12;startSize=8;endSize=8;labelBackgroundColor=none;fontColor=default;" edge="1" parent="1" source="pBC44l0gLQliGpBRJaoS-3" target="pBC44l0gLQliGpBRJaoS-4">
          <mxGeometry relative="1" as="geometry" />
        </mxCell>
        <mxCell id="pBC44l0gLQliGpBRJaoS-3" value="&lt;font style=&quot;font-size: 23px;&quot;&gt;Recognise the face&lt;/font&gt;" style="shape=parallelogram;perimeter=parallelogramPerimeter;whiteSpace=wrap;html=1;fixedSize=1;labelBackgroundColor=none;fillColor=#d5e8d4;strokeColor=#82b366;gradientColor=#97d077;" vertex="1" parent="1">
          <mxGeometry x="165" y="291" width="230" height="100" as="geometry" />
        </mxCell>
        <mxCell id="pBC44l0gLQliGpBRJaoS-22" style="edgeStyle=none;curved=1;rounded=0;orthogonalLoop=1;jettySize=auto;html=1;exitX=1;exitY=0.5;exitDx=0;exitDy=0;fontSize=12;startSize=8;endSize=8;labelBackgroundColor=none;fontColor=default;" edge="1" parent="1">
          <mxGeometry relative="1" as="geometry">
            <mxPoint x="770" y="480" as="targetPoint" />
            <mxPoint x="400" y="480" as="sourcePoint" />
          </mxGeometry>
        </mxCell>
        <mxCell id="xnM81ELrnFzwty11XV4R-7" value="" style="edgeStyle=none;curved=1;rounded=0;orthogonalLoop=1;jettySize=auto;html=1;fontSize=12;startSize=8;endSize=8;" edge="1" parent="1" source="pBC44l0gLQliGpBRJaoS-4" target="pBC44l0gLQliGpBRJaoS-5">
          <mxGeometry relative="1" as="geometry" />
        </mxCell>
        <mxCell id="pBC44l0gLQliGpBRJaoS-4" value="&lt;font style=&quot;font-size: 19px;&quot;&gt;face Recognisition&lt;/font&gt;" style="rhombus;whiteSpace=wrap;html=1;labelBackgroundColor=none;fillColor=#6a00ff;fontColor=#ffffff;strokeColor=#3700CC;" vertex="1" parent="1">
          <mxGeometry x="165" y="440" width="235" height="80" as="geometry" />
        </mxCell>
        <mxCell id="xnM81ELrnFzwty11XV4R-1" value="" style="edgeStyle=none;curved=1;rounded=0;orthogonalLoop=1;jettySize=auto;html=1;fontSize=12;startSize=8;endSize=8;" edge="1" parent="1" source="pBC44l0gLQliGpBRJaoS-5" target="pBC44l0gLQliGpBRJaoS-6">
          <mxGeometry relative="1" as="geometry" />
        </mxCell>
        <mxCell id="pBC44l0gLQliGpBRJaoS-5" value="&lt;font style=&quot;font-size: 18px;&quot;&gt;Stored in CSv file with registration&lt;/font&gt;&lt;div&gt;&lt;font style=&quot;font-size: 18px;&quot;&gt;Number &amp;amp; Data&lt;/font&gt;&lt;/div&gt;&lt;div&gt;&lt;font style=&quot;font-size: 18px;&quot;&gt;Time of Entry&lt;/font&gt;&lt;/div&gt;" style="shape=parallelogram;perimeter=parallelogramPerimeter;whiteSpace=wrap;html=1;fixedSize=1;labelBackgroundColor=none;fillColor=#e6d0de;strokeColor=#996185;gradientColor=#d5739d;" vertex="1" parent="1">
          <mxGeometry x="110" y="580" width="340" height="90" as="geometry" />
        </mxCell>
        <mxCell id="pBC44l0gLQliGpBRJaoS-6" value="&lt;font style=&quot;font-size: 17px;&quot;&gt;END&lt;/font&gt;" style="ellipse;whiteSpace=wrap;html=1;labelBackgroundColor=none;fillColor=#f5f5f5;gradientColor=#b3b3b3;strokeColor=#666666;" vertex="1" parent="1">
          <mxGeometry x="175" y="750" width="200" height="80" as="geometry" />
        </mxCell>
        <mxCell id="pBC44l0gLQliGpBRJaoS-16" value="" style="edgeStyle=none;curved=1;rounded=0;orthogonalLoop=1;jettySize=auto;html=1;fontSize=12;startSize=8;endSize=8;labelBackgroundColor=none;fontColor=default;" edge="1" parent="1" source="pBC44l0gLQliGpBRJaoS-7" target="pBC44l0gLQliGpBRJaoS-2">
          <mxGeometry relative="1" as="geometry" />
        </mxCell>
        <mxCell id="pBC44l0gLQliGpBRJaoS-36" value="" style="edgeStyle=none;curved=1;rounded=0;orthogonalLoop=1;jettySize=auto;html=1;fontSize=12;startSize=8;endSize=8;labelBackgroundColor=none;fontColor=default;entryX=0.5;entryY=0;entryDx=0;entryDy=0;" edge="1" parent="1" target="pBC44l0gLQliGpBRJaoS-7">
          <mxGeometry relative="1" as="geometry">
            <mxPoint x="610" y="60" as="sourcePoint" />
            <mxPoint x="610" y="130" as="targetPoint" />
            <Array as="points" />
          </mxGeometry>
        </mxCell>
        <mxCell id="pBC44l0gLQliGpBRJaoS-7" value="&lt;font style=&quot;font-size: 22px;&quot;&gt;Give your Photograph&lt;/font&gt;" style="rounded=0;whiteSpace=wrap;html=1;labelBackgroundColor=none;fillColor=#dae8fc;gradientColor=#7ea6e0;strokeColor=#6c8ebf;" vertex="1" parent="1">
          <mxGeometry x="500" y="140" width="230" height="90" as="geometry" />
        </mxCell>
        <mxCell id="pBC44l0gLQliGpBRJaoS-17" value="" style="edgeStyle=none;curved=1;rounded=0;orthogonalLoop=1;jettySize=auto;html=1;fontSize=12;startSize=8;endSize=8;labelBackgroundColor=none;fontColor=default;" edge="1" parent="1" source="pBC44l0gLQliGpBRJaoS-8" target="pBC44l0gLQliGpBRJaoS-3">
          <mxGeometry relative="1" as="geometry" />
        </mxCell>
        <mxCell id="pBC44l0gLQliGpBRJaoS-8" value="&lt;font style=&quot;font-size: 22px;&quot;&gt;Store the face data in&amp;nbsp;&lt;/font&gt;&lt;div&gt;&lt;font style=&quot;font-size: 22px;&quot;&gt;folder on your name&lt;/font&gt;&lt;/div&gt;" style="rounded=0;whiteSpace=wrap;html=1;labelBackgroundColor=none;fillColor=#f8cecc;gradientColor=#ea6b66;strokeColor=#b85450;" vertex="1" parent="1">
          <mxGeometry x="500" y="281" width="220" height="110" as="geometry" />
        </mxCell>
        <mxCell id="pBC44l0gLQliGpBRJaoS-21" value="" style="endArrow=none;html=1;rounded=0;fontSize=12;startSize=8;endSize=8;curved=1;labelBackgroundColor=none;fontColor=default;" edge="1" parent="1">
          <mxGeometry width="50" height="50" relative="1" as="geometry">
            <mxPoint x="770" y="480" as="sourcePoint" />
            <mxPoint x="770" y="60" as="targetPoint" />
          </mxGeometry>
        </mxCell>
        <mxCell id="pBC44l0gLQliGpBRJaoS-24" value="" style="endArrow=none;html=1;rounded=0;fontSize=12;startSize=8;endSize=8;curved=1;labelBackgroundColor=none;fontColor=default;" edge="1" parent="1">
          <mxGeometry width="50" height="50" relative="1" as="geometry">
            <mxPoint x="610" y="60" as="sourcePoint" />
            <mxPoint x="770" y="60" as="targetPoint" />
          </mxGeometry>
        </mxCell>
        <mxCell id="xnM81ELrnFzwty11XV4R-2" value="YES" style="text;html=1;align=center;verticalAlign=middle;resizable=0;points=[];autosize=1;strokeColor=none;fillColor=none;fontSize=16;" vertex="1" parent="1">
          <mxGeometry x="410" y="130" width="60" height="30" as="geometry" />
        </mxCell>
        <mxCell id="xnM81ELrnFzwty11XV4R-3" value="NO" style="text;html=1;align=center;verticalAlign=middle;resizable=0;points=[];autosize=1;strokeColor=none;fillColor=none;fontSize=16;" vertex="1" parent="1">
          <mxGeometry x="440" y="440" width="50" height="30" as="geometry" />
        </mxCell>
      </root>
    </mxGraphModel>
  </diagram>
  <diagram id="xL-KfNF3Y-P6cwe0dQtQ" name="Page-2">
    <mxGraphModel dx="872" dy="517" grid="0" gridSize="10" guides="1" tooltips="1" connect="1" arrows="1" fold="1" page="0" pageScale="1" pageWidth="850" pageHeight="1100" math="0" shadow="0">
      <root>
        <mxCell id="0" />
        <mxCell id="1" parent="0" />
      </root>
    </mxGraphModel>
  </diagram>
</mxfile>
